<?xml version="1.0" encoding="UTF-8"?>
<!-- Generated by Pixelmator Pro 4.3 -->
<svg viewBox="0 0 1024 1024" xmlns="http://www.w3.org/2000/svg">
    <path id="Rectangle" fill="#242b36" fill-rule="evenodd" stroke="none" d="M 0 1024 L 1024 1024 L 1024 0 L 0 0 Z"/>
    <g id="Group">
        <linearGradient id="linearGradient1" x1="116.267191" y1="169.35167" x2="905.89391" y2="773.909627" gradientUnits="userSpaceOnUse">
            <stop offset="1e-05" stop-color="#f7f8f4" stop-opacity="1"/>
            <stop offset="1" stop-color="#dce4de" stop-opacity="1"/>
        </linearGradient>
        <path id="Path" fill="url(#linearGradient1)" stroke="none" d="M 168.703339 120 L 853.457764 120 C 907.970154 120 952.161072 164.19104 952.161072 218.703369 L 952.161072 650.530457 C 952.161072 705.042847 907.970154 749.233765 853.457764 749.233765 L 168.703339 749.233765 C 114.190994 749.233765 70 705.042847 70 650.530457 L 70 218.703369 C 70 164.19104 114.190994 120 168.703339 120 Z"/>
        <path id="path1" fill="#242b36" stroke="none" d="M 199.548126 206.365417 L 822.612976 206.365417 C 851.572693 206.365417 875.049133 229.841858 875.049133 258.801575 L 875.049133 542.573669 C 875.049133 571.533447 851.572693 595.009827 822.612976 595.009827 L 199.548126 595.009827 C 170.588455 595.009827 147.111984 571.533447 147.111984 542.573669 L 147.111984 258.801575 C 147.111984 229.841858 170.588455 206.365417 199.548126 206.365417 Z"/>
        <path id="path2" fill="#29d68d" stroke="none" d="M 261.237732 283.477417 C 261.237732 298.809082 248.809021 311.237732 233.477402 311.237732 C 218.145798 311.237732 205.717087 298.809082 205.717087 283.477417 C 205.717087 268.145752 218.145798 255.717102 233.477402 255.717102 C 248.809021 255.717102 261.237732 268.145752 261.237732 283.477417 Z"/>
        <path id="path3" fill="#465064" stroke="none" d="M 322.927307 258.801575 L 464.813354 258.801575 C 478.441437 258.801575 489.489197 269.849304 489.489197 283.477417 L 489.489197 283.477417 C 489.489197 297.105469 478.441437 308.153259 464.813354 308.153259 L 322.927307 308.153259 C 309.299225 308.153259 298.251465 297.105469 298.251465 283.477417 L 298.251465 283.477417 C 298.251465 269.849304 309.299225 258.801575 322.927307 258.801575 Z"/>
        <path id="path4" fill="#eef2eb" stroke="none" d="M 396.954803 661.326172 L 625.206299 661.326172 L 662.220032 800.127686 L 788.683716 800.127686 C 817.986267 800.127686 841.119873 823.261292 841.119873 852.563843 C 841.119873 881.866394 817.986267 905 788.683716 905 L 233.477402 905 C 204.17485 905 181.04126 881.866394 181.04126 852.563843 C 181.04126 823.261292 204.17485 800.127686 233.477402 800.127686 L 359.941071 800.127686 Z"/>
        <path id="path5" fill="#bfc9c1" stroke="none" d="M 396.954803 661.326172 L 625.206299 661.326172 L 643.713135 732.269165 L 378.447937 732.269165 Z"/>
    </g>
    <g id="g1">
        <path id="path6" fill="#f7f8f4" stroke="none" d="M 464 416 L 507 416 L 552 522 L 597 416 L 640 416 L 573 568 L 531 568 Z"/>
        <path id="path7" fill="#f7f8f4" stroke="none" d="M 663 416 L 705 416 L 748 486 L 791 416 L 833 416 L 833 568 L 793 568 L 793 485 L 759 540 L 737 540 L 703 485 L 703 568 L 663 568 Z"/>
    </g>
</svg>
